# xmcd CD database file
#
# Track frame offsets:
#	150
#	22807
#	42415
#	61512
#	96152
#	116900
#	132082
#	154402
#	173635
#	199282
#	215920
#	238262
#
# Disc length: 3554 seconds
#
# Revision: 0
# Processed by: cddbd v1.5.2PL0 Copyright (c) Steve Scherf et al.
# Submitted via: CDex 1.50beta10
#
DISCID=aa0de00c
DTITLE=Various Artist - Jazzy Christmas
DYEAR=2005
DGENRE=Jazz
TTITLE0=Santa Claus Is Coming To Town (Coots/Gillespie)
TTITLE1=Let It Snow (Cahn)
TTITLE2=O Little Town Of Bethlehem (Brooks/Redner)
TTITLE3=Have Yourself A Merry Little Christmas (Martin/Blaine)
TTITLE4=Little Drummer Boy (Davis/Onoray/Simeone)
TTITLE5=A Jazzy Silent Night (traditional)
TTITLE6=Rudolph The Red Nosed Reindeer (Marks)
TTITLE7=It Came Upon A Midnight Clear (traditional)
TTITLE8=White Christmas (Berlin)
TTITLE9=Joy to The World (Watts/Handel)
TTITLE10=The Christmas Song (Torme/Wells)
TTITLE11=Auld Lang Syne (traditional)
EXTD=YEAR: 2005
EXTT0=
EXTT1=
EXTT2=
EXTT3=
EXTT4=
EXTT5=
EXTT6=
EXTT7=
EXTT8=
EXTT9=
EXTT10=
EXTT11=
PLAYORDER=
